<svg width="29" height="25" viewBox="0 0 29 25" fill="none" xmlns="http://www.w3.org/2000/svg">
<g clip-path="url(#clip0_2_11)">
<path d="M26.7879 10.7146H26.816C27.3004 10.7146 27.7379 10.9146 28.0504 11.2375C28.3733 11.551 28.5733 11.9885 28.5733 12.4729V12.5021V12.501V12.5292C28.5733 13.0135 28.3733 13.451 28.0504 13.7635C27.7369 14.0865 27.2994 14.2865 26.815 14.2865H26.7858H26.7869H26.5775L24.9723 23.525C24.9043 23.9402 24.6868 24.3163 24.3608 24.5823L24.3577 24.5844C24.0556 24.8437 23.6598 25.0021 23.2275 25.0021H5.34521C4.91292 25.0021 4.51708 24.8438 4.21292 24.5823L4.215 24.5844C3.89004 24.3204 3.67232 23.9472 3.6025 23.5344L3.60146 23.524L1.99625 14.2854H1.75875C1.27438 14.2854 0.836875 14.0854 0.524375 13.7625C0.358695 13.6023 0.227002 13.4103 0.137158 13.198C0.0473145 12.9858 0.00116284 12.7576 0.00145863 12.5271V12.4979V12.4708C0.00145863 11.9865 0.201459 11.549 0.524375 11.2365C0.837917 10.9135 1.27542 10.7135 1.75979 10.7135H1.78896H1.78792L26.7879 10.7146ZM6.76396 21.875C6.88084 21.867 6.99484 21.8352 7.09893 21.7814C7.20302 21.7277 7.29499 21.6532 7.36917 21.5625L7.37021 21.5615C7.44934 21.4736 7.50944 21.3703 7.54673 21.2581C7.58402 21.1459 7.59769 21.0271 7.58688 20.9094V20.9125L7.14 15.1083C7.13203 14.9915 7.10018 14.8775 7.04643 14.7734C6.99269 14.6693 6.91818 14.5773 6.8275 14.5031L6.82646 14.5021C6.73859 14.4229 6.63529 14.3628 6.52307 14.3256C6.41085 14.2883 6.29213 14.2746 6.17438 14.2854H6.1775C6.06062 14.2934 5.94662 14.3252 5.84253 14.379C5.73844 14.4327 5.64647 14.5072 5.57229 14.5979L5.57125 14.599C5.49211 14.6868 5.43201 14.7901 5.39473 14.9023C5.35744 15.0146 5.34377 15.1333 5.35458 15.251V15.2479L5.80146 21.0521C5.81632 21.2771 5.91879 21.4872 6.08688 21.6375L6.08792 21.6385C6.24873 21.7912 6.46203 21.8762 6.68375 21.876H6.69521H6.69417L6.76396 21.875ZM12.4983 20.9833V15.1792V15.1708C12.4987 15.0551 12.4754 14.9406 12.4299 14.8342C12.3844 14.7278 12.3176 14.6318 12.2337 14.5521C12.1538 14.4683 12.0576 14.4016 11.951 14.3561C11.8445 14.3106 11.7298 14.2873 11.614 14.2875H11.5973C11.4816 14.2872 11.367 14.3105 11.2606 14.356C11.1542 14.4014 11.0582 14.4682 10.9785 14.5521C10.8947 14.632 10.828 14.7282 10.7825 14.8348C10.7371 14.9413 10.7137 15.056 10.714 15.1719V20.9927C10.714 21.2365 10.815 21.4562 10.9785 21.6115C11.0585 21.6953 11.1547 21.762 11.2612 21.8075C11.3678 21.8529 11.4825 21.8763 11.5983 21.876H11.615C11.7307 21.8764 11.8453 21.8531 11.9517 21.8076C12.0581 21.7621 12.1541 21.6954 12.2337 21.6115C12.3187 21.5315 12.3864 21.435 12.4326 21.3278C12.4788 21.2207 12.5026 21.1052 12.5025 20.9885V20.9823L12.4983 20.9833ZM17.8556 20.9833V15.1792V15.1708C17.856 15.0551 17.8327 14.9406 17.7872 14.8342C17.7417 14.7278 17.6749 14.6318 17.591 14.5521C17.5111 14.4683 17.4149 14.4016 17.3083 14.3561C17.2018 14.3106 17.0871 14.2873 16.9713 14.2875H16.9546C16.8389 14.2872 16.7243 14.3105 16.6179 14.356C16.5115 14.4014 16.4155 14.4682 16.3358 14.5521C16.252 14.632 16.1853 14.7282 16.1398 14.8348C16.0943 14.9413 16.071 15.056 16.0712 15.1719V20.9927C16.0712 21.2365 16.1723 21.4562 16.3358 21.6115C16.4158 21.6953 16.512 21.762 16.6185 21.8075C16.7251 21.8529 16.8398 21.8763 16.9556 21.876H16.9723C17.088 21.8764 17.2026 21.8531 17.309 21.8076C17.4154 21.7621 17.5113 21.6954 17.591 21.6115C17.676 21.5315 17.7437 21.435 17.7899 21.3278C17.8361 21.2207 17.8599 21.1052 17.8598 20.9885V20.9823L17.8556 20.9833ZM22.766 21.0521L23.2129 15.2479C23.223 15.1305 23.209 15.0123 23.1717 14.9005C23.1345 14.7888 23.0747 14.6858 22.9962 14.5979L22.9973 14.599C22.9233 14.5082 22.8316 14.4334 22.7277 14.3793C22.6238 14.3252 22.5099 14.2929 22.3931 14.2844H22.39C22.2726 14.2743 22.1544 14.2883 22.0426 14.3256C21.9308 14.3628 21.8279 14.4225 21.74 14.501L21.741 14.5C21.6502 14.574 21.5755 14.6657 21.5214 14.7696C21.4673 14.8735 21.435 14.9874 21.4265 15.1042V15.1073L20.9796 20.9115C20.9695 21.0288 20.9835 21.1471 21.0208 21.2588C21.058 21.3706 21.1178 21.4736 21.1963 21.5615L21.1952 21.5604C21.2692 21.6512 21.3609 21.7259 21.4648 21.78C21.5687 21.8341 21.6826 21.8664 21.7994 21.875H21.8827C22.1047 21.875 22.3183 21.79 22.4796 21.6375C22.6498 21.4874 22.7542 21.2764 22.7702 21.05V21.0469L22.766 21.0521ZM6.64313 4.07292L5.34625 9.82083H3.50458L4.91292 3.66875C5.08271 2.85104 5.5275 2.15833 6.14417 1.67396L6.15146 1.66875C6.77204 1.16549 7.54726 0.89176 8.34625 0.893751H8.38583H8.38375H10.7129V0.885417C10.7129 0.641667 10.814 0.421876 10.9775 0.266667C11.0575 0.182572 11.1539 0.115651 11.2606 0.0699847C11.3673 0.0243179 11.4822 0.000860778 11.5983 0.00104246H16.9754C17.2192 0.00104246 17.439 0.102084 17.5942 0.265626C17.678 0.345592 17.7447 0.441776 17.7902 0.548326C17.8356 0.654876 17.859 0.769565 17.8587 0.885417V0.893751H20.2265C21.0608 0.893751 21.8265 1.18542 22.4265 1.67292L22.4202 1.66771C23.0521 2.16085 23.4893 2.86151 23.6546 3.64583L23.6587 3.66771L25.0671 9.81979H23.2254L21.9285 4.07188C21.8343 3.67743 21.6124 3.32515 21.2973 3.06979L21.2942 3.06667C20.9876 2.81348 20.6022 2.67532 20.2046 2.67604H17.8556V2.68438C17.856 2.80009 17.8327 2.91465 17.7872 3.02105C17.7417 3.12744 17.6749 3.22343 17.591 3.30313C17.5111 3.38695 17.4149 3.45364 17.3083 3.49912C17.2018 3.54461 17.0871 3.56794 16.9713 3.56771H11.5983C11.4826 3.56805 11.3681 3.54475 11.2617 3.49926C11.1553 3.45376 11.0593 3.38702 10.9796 3.30313C10.8958 3.22316 10.8291 3.12698 10.7836 3.02043C10.7381 2.91388 10.7148 2.79919 10.715 2.68333V2.675H8.36604C7.96748 2.67455 7.58131 2.81347 7.27437 3.06771L7.2775 3.06563C6.96472 3.31894 6.74399 3.66816 6.64938 4.05938L6.64729 4.07188L6.64313 4.07292Z" fill="white"/>
</g>
<defs>
<clipPath id="clip0_2_11">
<rect width="28.13" height="25" fill="white"/>
</clipPath>
</defs>
</svg>
